# xmcd
#
# Track frame offsets:
#	150
#	16932
#	30855
#	47387
#	62175
#	79670
#	94282
#	110955
#	124222
#	137927
#
# Disc length: 2046 seconds
#
# Revision: 6
# Processed by: cddbd v1.5.2PL0 Copyright (c) Steve Scherf et al.
# Submitted via: audiograbber 1.83.01
#
DISCID=8207fc0a
DTITLE=Dolly Parton - Something Special
DYEAR=1995
DGENRE=Country
TTITLE0=Crippled Bird
TTITLE1=Something Special
TTITLE2=Change
TTITLE3=I Will Always Love You (With Special Guest Vince Gill)
TTITLE4=Green-Eyed Boy
TTITLE5=Speakin' Of The Devil
TTITLE6=Jolene
TTITLE7=No Good Way Of Saying Good-Bye
TTITLE8=The Seeker
TTITLE9=Teach Me To Trust
EXTD=
EXTT0=
EXTT1=
EXTT2=
EXTT3=
EXTT4=
EXTT5=
EXTT6=
EXTT7=
EXTT8=
EXTT9=
PLAYORDER=
